<?xml version="1.0" encoding="iso-8859-1"?>
<!-- Generator: Adobe Illustrator 16.0.0, SVG Export Plug-In . SVG Version: 6.00 Build 0)  -->
<!DOCTYPE svg PUBLIC "-//W3C//DTD SVG 1.1//EN" "http://www.w3.org/Graphics/SVG/1.1/DTD/svg11.dtd">
<svg version="1.1" id="Capa_1" xmlns="http://www.w3.org/2000/svg" xmlns:xlink="http://www.w3.org/1999/xlink" 
    viewBox="0 0 24 24" preserveAspectRatio="xMidYMid meet">
    <path d="M17.655 6.333a.9.9 0 01.001 1.273l-4.103 4.108a.4.4 0 000 .566l4.103 4.109a.9.9 0 01.08 1.18l-.08.092a.9.9 0 01-1.273 0l-4.1-4.108a.4.4 0 00-.567 0l-4.1 4.107a.9.9 0 11-1.273-1.272l4.103-4.108a.4.4 0 000-.566L6.343 7.606a.9.9 0 01-.08-1.18l.081-.093a.9.9 0 011.273.001l4.099 4.106a.4.4 0 00.566 0l4.1-4.106a.9.9 0 011.273 0z">
    </path>
</svg>